<svg xmlns="http://www.w3.org/2000/svg" width="64.546" height="57.579" viewBox="0 0 64.546 57.579">
  <g id="Group_96" data-name="Group 96" transform="translate(-206.919 -86.051)">
    <path id="Path_135" data-name="Path 135" d="M215.467,101.935V94.381a7.33,7.33,0,0,1,7.33-7.33H258.75a7.33,7.33,0,0,1,7.33,7.33v7.555" transform="translate(-1.581 0)" fill="none" stroke="#000" stroke-linecap="round" stroke-linejoin="round" stroke-width="2"/>
    <path id="Path_136" data-name="Path 136" d="M220.761,125.032V112.3a6.421,6.421,0,0,0-6.421-6.421h0a6.421,6.421,0,0,0-6.421,6.421V142.23h62.546V112.3a6.421,6.421,0,0,0-6.421-6.421h0a6.42,6.42,0,0,0-6.42,6.421v12.731" transform="translate(0 -3.945)" fill="#fff" stroke="#000" stroke-linecap="round" stroke-linejoin="round" stroke-width="2"/>
    <g id="Group_95" data-name="Group 95" transform="translate(214.008 138.285)">
      <line id="Line_11" data-name="Line 11" y1="4.345" transform="translate(50.369)" fill="none" stroke="#000" stroke-linecap="round" stroke-linejoin="round" stroke-width="2"/>
      <line id="Line_12" data-name="Line 12" y1="4.345" stroke-width="2" stroke="#000" stroke-linecap="round" stroke-linejoin="round" fill="none"/>
    </g>
    <line id="Line_13" data-name="Line 13" x1="36.862" transform="translate(220.761 120.11)" fill="none" stroke="#000" stroke-linecap="round" stroke-linejoin="round" stroke-width="2"/>
  </g>
</svg>
