<svg xmlns="http://www.w3.org/2000/svg" width="33.172" height="24.395" viewBox="0 0 33.172 24.395">
  <g id="Group_138" data-name="Group 138" transform="translate(-106.888 -500.549)">
    <path id="Rectangle_53" data-name="Rectangle 53" d="M4.8,0h.932a4.8,4.8,0,0,1,4.8,4.8v8.681a0,0,0,0,1,0,0H0a0,0,0,0,1,0,0V4.8A4.8,4.8,0,0,1,4.8,0Z" transform="translate(112.933 501.549)" fill="#fff" stroke="#1a1818" stroke-linecap="round" stroke-linejoin="round" stroke-width="2"/>
    <path id="Rectangle_54" data-name="Rectangle 54" d="M4.8,0h.932a4.8,4.8,0,0,1,4.8,4.8v8.681a0,0,0,0,1,0,0H0a0,0,0,0,1,0,0V4.8A4.8,4.8,0,0,1,4.8,0Z" transform="translate(123.474 501.549)" fill="#fff" stroke="#1a1818" stroke-linecap="round" stroke-linejoin="round" stroke-width="2"/>
    <path id="Path_202" data-name="Path 202" d="M136.537,513.52a2.522,2.522,0,0,0-2.522,2.523v2.006H112.932v-2.006a2.522,2.522,0,1,0-5.044,0v4.841a2.522,2.522,0,0,0,2.523,2.522h26.127a2.522,2.522,0,0,0,2.523-2.522v-4.841A2.522,2.522,0,0,0,136.537,513.52Z" transform="translate(0 -3.306)" fill="#fff" stroke="#1a1818" stroke-linecap="round" stroke-linejoin="round" stroke-width="2"/>
    <rect id="Rectangle_55" data-name="Rectangle 55" width="1.281" height="3.844" rx="0.641" transform="translate(134.911 520.1)" fill="#1a1818" stroke="#000" stroke-width="2"/>
    <rect id="Rectangle_56" data-name="Rectangle 56" width="1.281" height="3.844" rx="0.641" transform="translate(110.756 520.1)" fill="#1a1818" stroke="#000" stroke-width="2"/>
  </g>
</svg>
