<svg xmlns="http://www.w3.org/2000/svg" width="26.829" height="26.829" viewBox="0 0 26.829 26.829">
  <g id="Group_30" data-name="Group 30" transform="translate(-675.345 -676.168)">
    <g id="Group_28" data-name="Group 28">
      <circle id="Ellipse_4" data-name="Ellipse 4" cx="12.414" cy="12.414" r="12.414" transform="translate(676.345 677.168)" fill="none" stroke="#1a1818" stroke-miterlimit="10" stroke-width="2"/>
    </g>
    <g id="Group_29" data-name="Group 29">
      <path id="Path_88" data-name="Path 88" d="M691.183,587.271h-4.55v-.631l.454-.039a1.72,1.72,0,0,0,.406-.076.686.686,0,0,0,.4-.3,1.074,1.074,0,0,0,.129-.558V579.85a1.139,1.139,0,0,0-.139-.559,1.231,1.231,0,0,0-.387-.424,1.743,1.743,0,0,0-.526-.2,3.943,3.943,0,0,0-.631-.1v-.631l3.327-.21.134.134v7.687a1.09,1.09,0,0,0,.128.554.76.76,0,0,0,.4.325,3.076,3.076,0,0,0,.408.139,2.548,2.548,0,0,0,.446.072Zm-1.2-13.261a1.392,1.392,0,0,1-.358.951,1.134,1.134,0,0,1-.884.407,1.115,1.115,0,0,1-.847-.388,1.264,1.264,0,0,1-.358-.884,1.317,1.317,0,0,1,.358-.918,1.113,1.113,0,0,1,.847-.392,1.176,1.176,0,0,1,.893.368A1.206,1.206,0,0,1,689.988,574.01Z" transform="translate(0 109.882)" fill="#1a1818"/>
    </g>
  </g>
</svg>
