<svg xmlns="http://www.w3.org/2000/svg" width="225.903" height="30.066" viewBox="0 0 225.903 30.066">
  <g id="Group_87" data-name="Group 87" transform="translate(-94 -493.475)">
    <g id="Group_84" data-name="Group 84" transform="translate(-172 111)">
      <g id="Group_86" data-name="Group 86">
        <g id="Group_85" data-name="Group 85" transform="translate(159.947 232.734)">
          <path id="Path_115" data-name="Path 115" d="M130.016,174.186H114.6l-2.526,5.56h-6.023l13.224-29.48h6.065l13.223,29.48H132.5Zm-7.707-17.73-5.474,12.55h10.949Z" fill="#fff"/>
          <path id="Path_116" data-name="Path 116" d="M147.072,150.266v24.342h15.161v5.138h-20.72v-29.48Z" fill="#fff"/>
          <path id="Path_117" data-name="Path 117" d="M165.56,163.658H181.1v4.717H165.56Z" fill="#fff"/>
          <path id="Path_118" data-name="Path 118" d="M211.128,158.394l-9.6,12.8h-1.1l-9.392-12.845v21.436H185.48v-29.48h6.4l9.223,12.676,9.223-12.676h6.359v29.48h-5.559Z" fill="#fff"/>
          <path id="Path_119" data-name="Path 119" d="M242.84,174.186H227.426l-2.527,5.56h-6.022l13.224-29.48h6.064l13.224,29.48h-6.064Zm-7.707-17.73-5.475,12.55h10.95Z" fill="#fff"/>
          <path id="Path_120" data-name="Path 120" d="M299.738,174.186H284.325l-2.527,5.56h-6.022L289,150.266h6.064l13.224,29.48h-6.065Zm-7.707-17.73-5.474,12.55h10.95Z" fill="#fff"/>
          <path id="Path_121" data-name="Path 121" d="M316.8,150.266v24.342h15.161v5.138h-20.72v-29.48Z" fill="#fff"/>
          <g id="Group_84-2" data-name="Group 84">
            <path id="Path_122" data-name="Path 122" d="M259.043,179.807a17.568,17.568,0,0,1,17.568-17.569" fill="none" stroke="#fff" stroke-miterlimit="10" stroke-width="5.929"/>
            <line id="Line_5" data-name="Line 5" x2="20.433" transform="translate(256.23 152.706)" fill="none" stroke="#fff" stroke-miterlimit="10" stroke-width="5.929"/>
          </g>
        </g>
      </g>
    </g>
  </g>
</svg>
