<svg xmlns="http://www.w3.org/2000/svg" width="148.907" height="25.447" viewBox="0 0 148.907 25.447"><defs><style>.a{fill:#1a1818;}</style></defs><g transform="translate(-10.991 -102.521)"><g transform="translate(10.991 102.521)"><path class="a" d="M124.637,111.414q0-4.121-2.259-6.072t-7.139-1.953H101.761v4.025l2.85,1.578v18.977h6.832V119.51h2.349l4.555,8.459h7.88l-5.458-9.435Q124.637,116.8,124.637,111.414Zm-7.627,2.259a3.614,3.614,0,0,1-2.422.668h-3.145v-5.567h3.145a3.685,3.685,0,0,1,2.422.651,3.35,3.35,0,0,1,0,4.247Z" transform="translate(-38.057 -102.956)"/><path class="a" d="M171.481,114.034a11.681,11.681,0,0,0-3.416-1.356l-2.639-.651a15.987,15.987,0,0,1-1.626-.541,1.875,1.875,0,0,1-1.049-.76,1.8,1.8,0,0,1-.217-.8,1.606,1.606,0,0,1,.849-1.519,5.524,5.524,0,0,1,2.585-.47,16.028,16.028,0,0,1,7.049,1.7v-5.675a11.87,11.87,0,0,0-3.326-1.067,22.7,22.7,0,0,0-4.193-.379q-9.941,0-9.94,7.989a6.966,6.966,0,0,0,1.464,4.7,8.631,8.631,0,0,0,4.717,2.458l2.675.614a6.586,6.586,0,0,1,2.368.886,1.509,1.509,0,0,1,.633,1.247,1.733,1.733,0,0,1-.885,1.626,5.585,5.585,0,0,1-2.693.506,18.524,18.524,0,0,1-8.314-2.133V126.2a12.6,12.6,0,0,0,3.777,1.3,24.6,24.6,0,0,0,4.862.47q5.132,0,7.681-1.952t2.549-6a7.706,7.706,0,0,0-.778-3.723A6.1,6.1,0,0,0,171.481,114.034Z" transform="translate(-58.373 -102.521)"/><path class="a" d="M214.229,103.389v9.217h-7.374v-9.217h-9.682v4.025l2.85,1.578v18.977h6.832v-9.542h7.374v9.542h6.832v-24.58Z" transform="translate(-72.154 -102.956)"/><path class="a" d="M69.8,127.969h7.229L68.5,103.389H56.123v4.025l2.686,1.487-6.646,19.068H59l.862-2.785h0l2.724-9.243,1.836-6.371,1.638,5.769h0l2.931,9.99h0Z" transform="translate(-22.701 -102.956)"/><path class="a" d="M20.674,108.92H31.7v-5.53H10.991v4.025l2.85,1.578v18.977h6.832v-9.037h9.615V113.4H20.674Z" transform="translate(-10.991 -102.956)"/></g></g></svg>