<svg xmlns="http://www.w3.org/2000/svg" width="70.878" height="64.334" viewBox="0 0 70.878 64.334">
  <g id="Group_177" data-name="Group 177" transform="translate(-224.406 -317.583)">
    <rect id="Rectangle_66" data-name="Rectangle 66" width="68.878" height="3.359" transform="translate(225.406 343.693)" stroke-width="2" stroke="#1a1818" stroke-linecap="round" stroke-linejoin="round"/>
    <path id="Path_220" data-name="Path 220" d="M225.406,432.432l10.137-30.081h-5.6Z" transform="translate(0 -55.298)" fill="none" stroke="#1a1818" stroke-linecap="round" stroke-linejoin="round" stroke-width="2"/>
    <path id="Path_221" data-name="Path 221" d="M395.214,432.432,385.077,402.35h5.6Z" transform="translate(-101.197 -55.298)" fill="none" stroke="#1a1818" stroke-linecap="round" stroke-linejoin="round" stroke-width="2"/>
    <path id="Path_222" data-name="Path 222" d="M300.783,390.517h-8.754a9.042,9.042,0,0,1-9.042-9.043l4.371-19.767a2.244,2.244,0,0,1,2.191-1.759h13.714a2.244,2.244,0,0,1,2.191,1.759l4.371,19.767A9.042,9.042,0,0,1,300.783,390.517Z" transform="translate(-36.494 -26.217)" fill="#fff" stroke="#1a1818" stroke-linecap="round" stroke-linejoin="round" stroke-width="2"/>
    <g id="Group_176" data-name="Group 176" transform="translate(248.119 364.008)">
      <line id="Line_23" data-name="Line 23" y1="16.65" x2="5.357" transform="translate(0 0)" fill="none" stroke="#1a1818" stroke-linecap="round" stroke-width="2"/>
      <line id="Line_24" data-name="Line 24" x1="5.357" y1="16.65" transform="translate(18.23 0)" fill="none" stroke="#1a1818" stroke-linecap="round" stroke-width="2"/>
    </g>
    <path id="Path_223" data-name="Path 223" d="M369.139,341.017v-6.874l5.174-5.187-10.347-10.373L360.1,322.7" transform="translate(-85.365)" fill="none" stroke="#1a1818" stroke-linecap="round" stroke-linejoin="round" stroke-width="2"/>
    <rect id="Rectangle_67" data-name="Rectangle 67" width="10.347" height="5.351" transform="translate(278.601 338.341)" stroke-width="2" stroke="#1a1818" stroke-linecap="round" stroke-linejoin="round" fill="#fff"/>
    <path id="Path_224" data-name="Path 224" d="M346.82,325.642a5.681,5.681,0,0,0-8.034,0l8.034,8.034A5.68,5.68,0,0,0,346.82,325.642Z" transform="translate(-71.859 -3.42)" stroke="#1a1818" stroke-linecap="round" stroke-width="2"/>
  </g>
</svg>
