<svg xmlns="http://www.w3.org/2000/svg" width="54.439" height="53.756" viewBox="0 0 54.439 53.756">
  <g id="Group_90" data-name="Group 90" transform="translate(-673.917 -552)">
    <path id="Path_126" data-name="Path 126" d="M674.917,583.51s21.7.923,28.943,2.5c5.873,1.281,23.5,8.939,23.5,8.939V553s-17.639,7.662-23.516,8.943c-3.871.847-28.923,2.5-28.923,2.5Z" transform="translate(0 0)" fill="#fff" stroke="#1a1818" stroke-linecap="round" stroke-linejoin="round" stroke-width="2"/>
    <line id="Line_6" data-name="Line 6" y1="17.19" transform="translate(687.817 565.322)" fill="none" stroke="#1a1818" stroke-linecap="round" stroke-linejoin="round" stroke-width="2"/>
    <g id="Group_89" data-name="Group 89" transform="translate(684.76 584.727)">
      <path id="Path_127" data-name="Path 127" d="M698.634,576.2l-11.453-14.755a37.869,37.869,0,0,1-8.775.194c-.054,0-.1-.015-.149-.023.1.587-1.072-.675-.679-.172l15.03,19.431a3.813,3.813,0,1,0,6.026-4.676Z" transform="translate(-677.498 -561.319)" fill="#1a1818"/>
    </g>
  </g>
</svg>
