<svg xmlns="http://www.w3.org/2000/svg" width="24.726" height="25.388" viewBox="0 0 24.726 25.388">
  <g id="Group_148" data-name="Group 148" transform="translate(-673.917 -551.476)">
    <path id="Path_208" data-name="Path 208" d="M674.917,566.222s9.406.4,12.543,1.084c2.545.555,10.183,3.874,10.183,3.874V553s-7.644,3.321-10.191,3.876c-1.678.367-12.535,1.083-12.535,1.083Z" fill="#fff" stroke="#1a1818" stroke-linecap="round" stroke-width="2"/>
    <line id="Line_19" data-name="Line 19" y1="7.45" transform="translate(680.508 558.34)" fill="none" stroke="#1a1818" stroke-linecap="round" stroke-width="2"/>
    <g id="Group_147" data-name="Group 147" transform="translate(679.183 566.75)">
      <path id="Path_209" data-name="Path 209" d="M686.658,567.766l-4.963-6.395a16.412,16.412,0,0,1-3.8.084c-.023,0-.041-.007-.064-.01.045.255-.464-.292-.294-.074l6.514,8.421a1.653,1.653,0,1,0,2.611-2.026Z" transform="translate(-677.498 -561.319)" fill="#1a1818" stroke="rgba(0,0,0,0)" stroke-linecap="round" stroke-width="2"/>
    </g>
  </g>
</svg>
