<svg xmlns="http://www.w3.org/2000/svg" width="28.157" height="28.157" viewBox="0 0 28.157 28.157">
  <g id="Group_27" data-name="Group 27" transform="translate(-674.681 -628.229)">
    <path id="Path_87" data-name="Path 87" d="M689.935,545.386h-2.35a.244.244,0,0,0-.06-.044,1.725,1.725,0,0,1-1.374-1.858c0-.648-.008-1.3.012-1.945q-.987-.371-1.949-.806a.256.256,0,0,0-.346.063c-.637.654-1.278,1.3-1.952,1.918a.972.972,0,0,1-1.31-.01c-.611-.566-1.209-1.15-1.786-1.753a1.528,1.528,0,0,1-.324-.49,1.788,1.788,0,0,1,.587-2.3c.423-.417.842-.838,1.222-1.217-.273-.709-.519-1.366-.789-2.018-.915-.024-1.831,0-2.746-.024a1,1,0,0,1-.955-.973,1.42,1.42,0,0,0-.134-.447v-2.35a.227.227,0,0,0,.044-.06,1.732,1.732,0,0,1,1.861-1.373c.57,0,1.141-.007,1.711.006.188,0,.257-.068.321-.237q.353-.93.761-1.837c-.707-.689-1.408-1.386-2.085-2.1a1.045,1.045,0,0,1,0-1.418c.687-.752,1.431-1.448,2.139-2.179a1.155,1.155,0,0,1,1.647-.013c.669.669,1.344,1.333,2,2.011.614-.271,1.233-.532,1.86-.77a.274.274,0,0,0,.212-.312c-.009-.511,0-1.022,0-1.533a1.786,1.786,0,0,1,1.415-2.064c.007,0,.011-.013.017-.019h2.35a.215.215,0,0,0,.06.043,1.725,1.725,0,0,1,1.371,1.834c0,.595,0,1.191.007,1.786,0,.076.048.2.1.219.628.252,1.261.488,1.913.736-.015.01,0,0,.013-.009.678-.676,1.35-1.358,2.042-2.019a1.014,1.014,0,0,1,1.393,0c.774.739,1.524,1.5,2.276,2.264a1.04,1.04,0,0,1,0,1.466c-.625.632-1.249,1.264-1.883,1.886a.224.224,0,0,0-.057.3q.432.975.818,1.969c1-.015,2.011-.022,3.014.026a.848.848,0,0,1,.74,1.026.757.757,0,0,0,.091.373v2.35c-.015.021-.039.04-.045.064-.153.7-.5,1.339-1.221,1.358-.8.021-1.6,0-2.4.014a.283.283,0,0,0-.219.1c-.264.651-.513,1.309-.782,2.007.466.46.978.946,1.468,1.454a1.714,1.714,0,0,1,.028,2.38q-.652.7-1.353,1.354a1.719,1.719,0,0,1-2.381-.026c-.437-.417-.859-.85-1.282-1.282a1.532,1.532,0,0,1-.176-.281l-.061.117c-.681.265-1.364.524-2.039.8-.019.576-.013,1.153-.01,1.73a1.8,1.8,0,0,1-1.417,2.088C689.944,545.369,689.94,545.379,689.935,545.386Zm.526-16.184a3.554,3.554,0,0,0-4.826,4.766,2.953,2.953,0,0,0,1.415,1.436,3.554,3.554,0,0,0,4.833-4.765A2.952,2.952,0,0,0,690.461,529.2Z" transform="translate(0 110)" fill="none" stroke="#1a1818" stroke-linecap="round" stroke-linejoin="round" stroke-width="2"/>
  </g>
</svg>
